<?xml version="1.0" encoding="iso-8859-1"?>
<!-- Generator: Adobe Illustrator 23.1.0, SVG Export Plug-In . SVG Version: 6.00 Build 0)  -->
<svg version="1.1" id="Layer_1" xmlns="http://www.w3.org/2000/svg" xmlns:xlink="http://www.w3.org/1999/xlink" x="0px" y="0px"
	 width="378px" height="159.641px" viewBox="0 0 378 159.641" enable-background="new 0 0 378 159.641" xml:space="preserve">
<g>
	<defs>
		<rect id="SVGID_1_" x="19" y="21.567" width="341.226" height="119.15"/>
	</defs>
	<clipPath id="SVGID_2_">
		<use xlink:href="#SVGID_1_"  overflow="visible"/>
	</clipPath>
	<path clip-path="url(#SVGID_2_)" fill="#FFFFFF" d="M358.928,76.615c-2.873,1.831-6.923,2.637-11.195,2.637
		c-2.946,0-5.303-0.073-6.923-0.366v-28.06h6.776c4.419,0,8.469,0.879,11.415,2.784V41.093c-2.356,2.198-6.039,3.517-10.826,3.517
		h-7.439V28.415c1.326-0.293,3.462-0.586,7.218-0.586c4.64,0,8.47,0.953,10.9,3.078v-7.905c-3.093-0.95-6.776-1.389-11.416-1.389
		c-5.744,0-11.41,0.585-15.015,1.316v62.028c2.722,0.365,7.063,0.731,12.732,0.731c5.45,0,10.017-0.512,13.773-1.609V76.615z
		 M305.316,79.545c-7.369,0-9.285-5.64-9.285-25.858c0-20.145,1.916-25.711,9.285-25.711c7.295,0,9.21,5.566,9.21,25.711
		C314.526,73.905,312.611,79.545,305.316,79.545 M305.316,21.613c-17.819,0-17.819,14.493-17.819,32.074
		c0,17.727,0,32.001,17.819,32.001c17.671,0,17.892-14.274,17.892-32.001C323.208,36.106,322.987,21.613,305.316,21.613
		 M255.229,28.489c1.769-0.367,3.243-0.587,6.559-0.587c4.864,0,7.665,2.345,7.665,7.109c0,5.277-3.317,7.402-7.517,7.402h-6.707
		V28.489z M255.229,79.399v-30.77h4.79c8.622,0,12.233,4.029,12.233,15.458c0,8.718-4.201,15.238-10.907,15.312H255.229z
		 M277.25,33.545c0-8.349-5.958-11.932-15.978-11.932c-5.748,0-10.678,0.585-14.282,1.316v61.37
		c3.237,0.877,8.755,1.389,14.282,1.389c11.715,0,19.587-8.927,19.587-21.601c0-13.846-6.253-18.237-12.292-19.188v-1.097
		C274.087,42.632,277.25,37.649,277.25,33.545 M214.207,43.362c0.736,3.663,1.399,6.887,2.062,9.816
		c-3.167-0.731-6.555-0.731-9.575,0.073l2.21-9.889c0.589-2.785,1.841-12.089,2.578-14.434h0.589
		C212.807,31.273,213.618,40.577,214.207,43.362 M206.989,75.882c-4.345,2.491-8.028,3.443-13.036,3.443
		c-8.101,0-16.277-6.081-16.277-28.271c0-14.067,4.714-23.225,12.447-23.225c3.462,0,5.229,1.685,7.218,3.444v-7.905
		c-2.357-1.316-4.124-1.755-7.291-1.755c-13.256,0-20.613,12.077-20.613,29.441c0,27.539,11.922,34.634,23.78,34.634
		c5.45,0,9.5-0.658,13.772-2.34V75.882z M204.706,67.968c-0.295-2.125-0.147-4.909,0.368-7.547c4.051-1.318,8.47-1.391,12.594-0.366
		c3.462,16.486,3.535,16.633,3.609,16.633c0.737,3.369,0.958,6.587,0.663,9h11.047c-1.399-1.901-2.577-4.315-3.314-7.535
		l-12.741-56.54c-4.051,0.219-7.365,0.585-10.164,1.024l-8.691,37.711c-0.736,3.224-1.915,5.642-3.461,7.62H204.706z
		 M162.063,21.613c-3.164,0.219-6.106,0.585-8.24,1.025v62.318c1.986,0.293,4.782,0.586,8.24,0.732V21.613z M122.955,35.52
		c0-4.908,3.168-8.057,8.843-8.057c4.495,0,8.694,3.003,10.533,7.838V23.88c-2.87-1.317-6.259-2.267-10.533-2.267
		c-9.652,0-16.346,5.704-16.346,14.347c0,9.156,5.811,14.797,11.777,19.632c6.19,4.981,12.453,9.596,12.453,15.895
		c0,5.348-3.537,7.912-8.842,7.912c-5.232,0-11.269-4.249-13.182-9.23V82.47c3.458,2.194,8.318,3.218,13.255,3.218
		c10.02,0,16.494-6.582,16.494-15.226c0-9.669-6.253-15.749-12.441-20.731C128.924,44.897,122.955,40.648,122.955,35.52
		 M89.15,35.52c0-4.908,3.168-8.057,8.842-8.057c4.495,0,8.694,3.003,10.533,7.838V23.88c-2.869-1.317-6.259-2.267-10.533-2.267
		c-9.652,0-16.346,5.704-16.346,14.347c0,9.156,5.812,14.797,11.778,19.632c6.19,4.981,12.453,9.596,12.453,15.895
		c0,5.348-3.537,7.912-8.843,7.912c-5.232,0-11.268-4.249-13.181-9.23V82.47c3.458,2.194,8.318,3.218,13.255,3.218
		c10.02,0,16.493-6.582,16.493-15.226c0-9.669-6.253-15.749-12.44-20.731C95.118,44.897,89.15,40.648,89.15,35.52 M75.451,76.615
		c-2.872,1.831-6.923,2.637-11.195,2.637c-2.946,0-5.302-0.073-6.923-0.366v-28.06h6.776c4.419,0,8.47,0.879,11.416,2.784V41.093
		c-2.357,2.198-6.039,3.517-10.827,3.517H57.26V28.415c1.325-0.293,3.461-0.586,7.217-0.586c4.64,0,8.47,0.953,10.9,3.078v-7.905
		c-3.093-0.95-6.775-1.389-11.415-1.389c-5.745,0-11.411,0.585-15.016,1.316v62.028c2.722,0.365,7.063,0.731,12.733,0.731
		c5.45,0,10.016-0.512,13.772-1.609V76.615z M20.224,30.983c2.43-2.054,6.113-3.008,10.606-3.081v45.922
		c0,3.741-0.884,5.282-3.83,5.282c-1.989,0-3.756-0.587-6.776-2.494v7.906c2.872,0.731,5.008,1.17,7.807,1.17
		c7.58,0,10.965-4.388,10.965-11.864V21.905c-6.548-0.512-12.954-0.658-18.772,1.17V30.983z"/>
	<path clip-path="url(#SVGID_2_)" fill="#FFFFFF" d="M353.801,105.95c-4.758-4.675-10.274-8.544-11.139-14.401v-2.096l-7.506,1.773
		c1.405,1.881,2.054,4.568,2.054,7.9v37.024c1.619,0.161,2.915,0.322,5.452,0.322v-33.477h0.432
		c3.894,4.352,8.815,7.684,11.086,12.036v20.957c1.403,0.162,3.509,0.484,6.046,0.484V89.453c-2.375,0.161-4.481,0.484-6.046,0.806
		v15.691H353.801z M329.096,106.275c-4.43-0.591-7.562-0.538-12.423-0.054v6.497c1.618-1.021,3.511-1.613,6.647-1.613v14.032
		c0,4.193-2.758,7.042-6.002,7.042c-4.055-0.161-6.705-3.333-6.705-15.483c0-16.444,4.542-22.09,10.22-22.09
		c3.401,0,5.184,1.398,6.588,3.065v-7.09c-1.783-0.698-3.349-1.128-6.427-1.128c-9.028,0-16.914,9.079-16.914,27.243
		c0,12.311,3.834,19.615,11.24,20.045c3.296,0,5.999-1.771,7.568-4.992h0.486c0.108,1.986,0.324,4.723,0.324,4.723h6.587
		c-0.811-1.449-1.189-3.22-1.189-5.637V106.275z M298.669,89.453c-2.321,0.161-4.48,0.43-6.046,0.753v45.729
		c1.458,0.215,3.509,0.43,6.046,0.537V89.453z M269.972,99.659c0-3.602,2.325-5.913,6.489-5.913c3.298,0,6.379,2.204,7.729,5.752
		v-8.381c-2.106-0.966-4.593-1.664-7.729-1.664c-7.083,0-11.995,4.186-11.995,10.528c0,6.719,4.264,10.858,8.642,14.406
		c4.542,3.655,9.139,7.042,9.139,11.664c0,3.924-2.596,5.806-6.489,5.806c-3.84,0-8.269-3.118-9.673-6.773v9.027
		c2.537,1.61,6.104,2.361,9.727,2.361c7.352,0,12.103-4.83,12.103-11.173c0-7.095-4.589-11.557-9.129-15.212
		C274.352,106.539,269.972,103.421,269.972,99.659 M259.92,129.814c-2.108,1.344-5.08,1.935-8.215,1.935
		c-2.162,0-3.891-0.053-5.08-0.268V110.89h4.972c3.243,0,6.215,0.645,8.377,2.043v-9.185c-1.729,1.613-4.432,2.581-7.945,2.581
		h-5.458V94.445c0.973-0.215,2.54-0.43,5.296-0.43c3.405,0,6.215,0.699,7.999,2.258v-5.8c-2.27-0.698-4.972-1.02-8.377-1.02
		c-4.215,0-8.373,0.43-11.018,0.966v45.516c1.997,0.269,5.182,0.537,9.343,0.537c3.999,0,7.35-0.376,10.106-1.181V129.814z
		 M217.712,131.857V94.498c1.298-0.268,1.19-0.429,3.623-0.429c4.002,0,7.355,2.902,7.571,14.136
		c0.108,14.46-3.082,23.598-8.328,23.652H217.712z M235.276,108.205c-0.323-13.384-4.75-18.752-14.103-18.752
		c-4.217,0-6.808,0.43-9.453,0.966v45.033c2.375,0.644,4.265,1.02,8.317,1.02C231.173,136.472,235.763,123.794,235.276,108.205
		 M195.5,129.814c-1.837,1.398-2.972,1.989-4.701,1.989c-4.216,0-10.863-3.171-10.863-20.749c0-10.32,3.459-17.039,9.133-17.039
		c3.081,0,4.594,0.967,6.377,2.257v-5.799c-2.269-0.698-3.026-1.02-6.431-1.02c-9.727,0-15.126,8.862-15.126,21.601
		c0,20.212,8.208,25.418,16.369,25.418c2.054,0,3.459-0.429,5.242-1.181V129.814z M168.478,89.453
		c-2.321,0.161-4.48,0.43-6.046,0.753v45.729c1.458,0.215,3.509,0.43,6.046,0.537V89.453z M148.327,106.113
		c-3.083-1.289-6.598-1.343-9.572,0h-0.541v-16.66c-2.321,0.162-4.427,0.43-5.992,0.753v45.729c1.457,0.215,3.509,0.429,6.046,0.537
		v-24.668c3.353-1.451,7.193-1.451,10.545,0v24.131c1.458,0.215,3.509,0.429,6.047,0.537V89.453
		c-2.322,0.162-4.373,0.269-6.155,0.592h0.108v16.068H148.327z M110.76,104.717V94.499c1.298-0.269,2.866-0.43,5.3-0.43
		c3.569,0,5.624,1.721,5.624,5.216c0,3.388-1.947,5.432-5.516,5.432H110.76z M127.838,98.962c-0.27-6.181-4.75-9.509-12.103-9.509
		c-4.218,0-8.376,0.43-11.021,0.966v45.516c1.458,0.215,3.509,0.429,6.046,0.537v-27.731h0.433c0.865,0.215,2.974,0.537,3.839,0.537
		C123.195,109.278,128.054,105.79,127.838,98.962 M86.657,105.446c0.432-2.049,0.648-4.583,1.189-6.308h0.486
		c0.541,1.725,0.703,4.259,1.135,6.308l1.405,6.955c-1.945-0.322-3.891-0.268-5.782,0.215L86.657,105.446z M57.473,94.554
		c1.244-0.27,2.812-0.485,5.245-0.485c3.624,0,5.679,1.725,5.679,5.23c0,7.01-5.246,9.545-10.924,9.976V94.554z M91.845,117.071
		c0.486,2.418,0.649,4.675,0.432,6.395h8.107c-1.027-1.397-1.891-3.171-2.432-5.535l-6.485-28.478
		c-2.324,0.161-4.27,0.43-5.837,0.752l-6.323,27.672c-0.541,2.365-1.405,4.138-2.54,5.589h6.863
		c-0.216-1.718-0.108-3.976,0.379-6.073C86.495,116.48,89.251,116.426,91.845,117.071z M64.233,109.76v-0.593
		c6.593-0.701,10.264-4.098,10.156-10.191c-0.108-6.142-4.697-9.523-11.995-9.523c-4.11,0-8.268,0.483-10.967,0.966v45.569
		c1.403,0.162,3.509,0.484,6.046,0.484v-23.051c14.54-2.097,3.082,27.297,27.779,27.297c5.026,0,9.187-1.398,12.376-2.902
		l2.486-8.223c-4.27,3.601-10.16,5.643-15.187,5.643c-10.7,0-11.186-9.513-13.777-17.144
		C70.016,114.709,68.559,111.54,64.233,109.76 M44.016,106.275c-4.43-0.591-7.562-0.538-12.423-0.054v6.497
		c1.618-1.021,3.511-1.613,6.647-1.613v14.032c0,4.193-2.758,7.042-6.002,7.042c-4.056-0.161-6.705-3.333-6.705-15.483
		c0-16.444,4.542-22.09,10.22-22.09c3.401,0,5.183,1.398,6.588,3.065v-7.09c-1.783-0.698-3.349-1.128-6.428-1.128
		C26.885,89.453,19,98.532,19,116.696c0,12.311,3.833,19.615,11.24,20.045c3.296,0,5.999-1.771,7.567-4.992h0.487
		c0.108,1.986,0.324,4.723,0.324,4.723h6.587c-0.811-1.449-1.189-3.22-1.189-5.637V106.275z"/>
</g>
</svg>
